<?xml version="1.0" encoding="utf-8"?>
<svg version="1.0" width="550.000000pt" height="425.000000pt" viewBox="0 0 550.000000 425.000000" preserveAspectRatio="xMidYMid meet" xmlns="http://www.w3.org/2000/svg">
  <g transform="translate(0.000000,425.000000) scale(0.100000,-0.100000)" fill="#000000" stroke="none">
    <path d="M1508 3773 c-101 -131 -220 -285 -263 -343 -130 -173 -194 -249 -319 -378 l-119 -123 6 -226 c4 -125 7 -335 7 -469 l0 -242 25 -6 c18 -5 25 -13 25 -32 0 -49 23 -115 44 -129 11 -7 39 -17 61 -20 22 -4 55 -17 74 -28 l33 -20 45 22 c53 26 113 21 113 -9 0 -10 9 -21 19 -25 11 -3 26 -17 35 -30 18 -28 41 -24 50 8 l6 22 18 -21 c9 -12 27 -25 40 -29 12 -3 22 -11 22 -16 0 -5 22 -9 48 -9 39 0 53 5 72 25 22 23 25 24 46 10 13 -8 45 -15 71 -15 27 0 58 -6 68 -14 54 -38 129 5 141 80 3 24 12 48 19 54 9 8 11 4 7 -15 -3 -20 0 -25 17 -25 17 0 27 12 43 46 11 25 18 57 15 70 -2 14 0 27 4 30 17 10 19 -22 4 -65 -21 -59 -19 -81 4 -81 14 0 28 16 45 51 30 59 31 70 11 109 -18 35 -10 41 29 25 22 -9 25 -13 12 -18 -17 -7 -23 -62 -8 -71 4 -2 27 -2 50 1 44 6 55 25 30 52 -11 11 -9 12 7 3 12 -6 54 -8 103 -5 l81 6 11 -29 c31 -84 80 -154 109 -154 11 0 9 -5 -7 -16 -35 -24 -29 -52 14 -60 29 -5 40 -2 57 14 17 18 18 23 7 37 -16 19 -15 19 39 33 l43 10 -5 -40 c-4 -32 -1 -43 15 -56 75 -61 74 -60 61 -81 -19 -31 -16 -69 7 -81 11 -6 25 -8 30 -5 5 3 8 -7 7 -22 -1 -16 3 -27 9 -26 6 1 9 -10 6 -29 l-5 -31 42 7 c33 5 41 3 41 -9 0 -8 4 -15 9 -15 5 0 7 -8 5 -18 -6 -22 33 -85 49 -79 21 7 33 56 18 79 -12 20 -11 21 17 15 80 -16 130 -19 151 -7 31 16 159 21 184 7 15 -9 21 -9 24 1 4 10 8 10 19 1 7 -6 32 -9 54 -7 22 2 40 0 40 -4 0 -14 30 -9 36 6 8 22 37 8 62 -30 12 -18 29 -34 38 -34 8 0 25 -12 38 -27 21 -25 26 -26 42 -13 13 9 15 10 7 1 -14 -16 -6 -41 13 -41 8 0 14 -8 14 -19 0 -11 12 -23 30 -31 16 -7 35 -19 42 -28 10 -12 10 -14 1 -8 -15 8 -50 17 -78 19 -14 2 -21 -5 -23 -23 -2 -21 3 -27 30 -35 18 -6 33 -17 33 -25 0 -12 -10 -14 -45 -11 -25 2 -52 7 -61 11 -8 5 -21 5 -29 0 -17 -11 -39 16 -40 48 0 18 -6 22 -30 22 -26 0 -31 5 -37 30 -7 39 -13 42 -64 31 -70 -16 -70 -26 -4 -86 54 -48 60 -57 60 -93 0 -23 -7 -48 -17 -59 -28 -32 -32 -113 -9 -198 23 -81 19 -105 -19 -125 -11 -6 -20 -18 -20 -27 0 -10 -11 -26 -24 -38 -22 -17 -25 -30 -28 -93 -2 -61 0 -76 14 -86 24 -18 12 -26 -38 -26 -53 0 -75 -26 -67 -78 7 -44 41 -61 86 -44 23 9 33 9 38 0 11 -17 39 -1 39 22 0 32 52 83 86 84 26 1 30 5 34 39 7 49 49 93 97 101 21 3 78 8 126 10 49 2 93 8 99 14 14 14 2 45 -15 39 -19 -7 -41 8 -33 22 4 6 15 11 25 11 10 0 43 13 74 30 31 16 69 30 84 30 30 1 63 20 63 38 0 6 -10 22 -22 35 -13 13 -28 32 -35 43 -11 19 -12 19 -52 -4 -22 -12 -53 -21 -68 -20 l-28 2 20 40 c30 62 103 130 160 151 28 10 56 23 64 29 30 23 90 38 155 37 73 0 136 19 136 41 0 7 -13 22 -30 33 -19 13 -25 22 -17 27 6 4 15 1 20 -7 10 -19 31 -19 47 0 7 8 17 12 22 9 5 -3 23 8 40 25 29 30 30 33 15 48 -14 14 -14 18 -2 27 8 6 43 58 78 116 49 83 70 109 98 122 49 23 68 68 45 103 -10 14 -14 34 -11 44 5 16 -16 51 -31 51 -52 0 -190 -75 -217 -117 -5 -9 -21 -11 -48 -7 -29 5 -43 3 -52 -8 -19 -24 -69 -5 -91 34 -27 46 -37 50 -63 26 l-22 -21 -31 26 c-39 34 -82 41 -186 33 -101 -8 -115 -2 -200 86 -62 64 -114 150 -114 188 0 12 -50 218 -111 458 -61 240 -116 459 -123 487 -7 31 -17 51 -28 53 -19 4 -30 -33 -21 -67 6 -22 4 -23 -18 -17 -13 4 -41 10 -61 13 -29 4 -38 10 -38 25 0 11 -25 44 -55 74 -41 40 -63 54 -85 54 -29 0 -80 47 -80 75 0 7 -12 21 -27 30 -16 10 -42 32 -58 49 -17 17 -39 36 -50 42 -18 10 -19 14 -7 47 11 32 11 40 -8 76 -11 22 -20 58 -20 80 0 31 -7 49 -31 76 -31 35 -32 38 -26 108 4 46 2 90 -7 122 -11 44 -16 50 -37 48 -13 -1 -78 -4 -144 -7 -67 -3 -139 -12 -162 -20 -51 -18 -100 -18 -107 1 -3 7 -14 13 -24 13 -10 0 -26 8 -36 18 -9 11 -33 24 -54 30 -110 32 -162 45 -207 52 -40 6 -54 13 -75 40 -14 18 -36 44 -50 58 -40 39 -141 112 -156 112 -7 0 -95 -107 -196 -237z m308 134 c18 -9 45 -37 60 -62 32 -50 40 -55 104 -65 25 -4 70 -15 100 -23 30 -9 67 -18 81 -21 14 -3 42 -17 63 -31 20 -14 43 -25 50 -25 8 0 16 -7 20 -15 7 -20 66 -19 131 1 44 13 190 20 283 12 30 -3 40 -43 34 -144 -4 -79 -4 -81 28 -117 26 -30 31 -43 27 -70 -3 -21 2 -43 15 -65 15 -24 18 -41 13 -72 -7 -43 0 -80 17 -80 17 0 120 -99 148 -142 14 -22 35 -41 50 -44 70 -15 150 -86 150 -133 0 -16 6 -21 29 -21 16 0 45 -7 65 -15 40 -17 54 -13 65 17 5 13 44 -126 118 -419 62 -241 117 -465 122 -497 6 -33 18 -67 26 -76 8 -9 15 -24 15 -34 0 -23 135 -157 180 -178 27 -13 45 -14 80 -8 106 21 158 11 235 -44 27 -20 27 -20 44 3 l17 23 26 -40 c32 -48 87 -65 119 -36 16 14 23 15 46 5 23 -11 29 -9 57 16 72 66 116 93 161 99 44 7 45 6 45 -20 0 -15 7 -37 15 -50 14 -21 14 -25 -6 -49 -11 -15 -26 -27 -34 -27 -20 0 -57 -48 -115 -150 -29 -49 -56 -90 -61 -90 -5 0 -23 -13 -41 -28 -49 -42 -98 -68 -142 -75 -41 -7 -76 -31 -76 -54 0 -21 29 -27 49 -9 15 14 23 14 62 2 43 -13 44 -13 18 -24 -14 -6 -52 -8 -85 -6 -36 2 -72 -2 -94 -10 -19 -8 -42 -17 -50 -20 -8 -3 -22 -10 -30 -15 -8 -5 -45 -23 -82 -40 -40 -19 -69 -40 -73 -51 -4 -11 -15 -25 -26 -30 -18 -10 -69 -104 -69 -128 0 -20 101 -14 129 7 l24 19 24 -35 c27 -40 23 -53 -16 -53 -25 0 -89 -24 -131 -50 -8 -5 -27 -11 -41 -14 -20 -4 -31 -17 -43 -46 l-16 -41 -49 7 c-31 4 -51 2 -55 -5 -4 -6 -20 -11 -35 -11 -54 0 -116 -72 -105 -121 4 -18 3 -20 -4 -10 -15 21 -77 -23 -101 -72 -11 -21 -22 -34 -25 -28 -5 7 -19 5 -41 -6 -42 -20 -65 -6 -65 38 0 30 9 35 74 41 38 4 58 34 34 52 -14 10 -18 28 -18 73 0 51 4 63 25 83 14 13 25 28 25 33 0 5 14 25 30 44 36 40 36 42 10 139 -23 86 -20 122 16 195 22 43 23 49 10 81 -8 19 -35 53 -59 75 -48 44 -49 53 -8 53 19 0 30 -9 41 -33 11 -24 21 -31 37 -30 20 2 22 -1 16 -29 -5 -26 -4 -30 10 -25 12 5 17 1 17 -13 0 -26 18 -35 38 -17 14 12 28 13 81 5 51 -8 66 -7 72 4 17 25 4 53 -31 70 -40 20 -32 23 24 7 25 -7 42 -7 48 -1 17 17 -1 49 -33 62 -17 7 -35 24 -40 37 -4 12 -12 23 -17 23 -5 0 -7 12 -4 27 5 25 3 26 -26 20 -25 -5 -34 -2 -42 13 -6 11 -17 20 -25 20 -7 0 -26 15 -42 34 -36 43 -72 63 -83 46 -4 -7 -28 -14 -53 -17 -38 -3 -45 0 -50 17 -6 23 -20 26 -39 7 -8 -7 -47 -12 -106 -13 -52 -1 -103 -7 -116 -13 -17 -10 -37 -10 -81 -2 -32 6 -75 11 -96 11 -25 0 -39 5 -43 16 -5 12 -16 15 -40 12 -33 -4 -34 -3 -29 24 4 19 1 28 -7 28 -10 0 -10 3 0 15 21 25 4 47 -32 43 -28 -3 -33 0 -30 17 2 11 6 34 9 51 5 31 -6 47 -51 69 -17 8 -21 21 -23 59 -1 27 -4 51 -7 54 -3 2 -36 -3 -72 -12 -65 -17 -69 -16 -93 2 -33 24 -78 89 -86 124 -10 43 -27 50 -112 47 -43 -1 -89 2 -103 8 -60 25 -129 43 -144 37 -20 -8 -20 -27 0 -65 14 -28 14 -33 -10 -82 -29 -59 -33 -58 -11 3 19 54 19 75 -1 94 -25 25 -58 3 -50 -34 3 -16 0 -43 -6 -61 -9 -26 -12 -29 -20 -15 -22 39 -69 5 -74 -54 -2 -24 -11 -51 -19 -60 -21 -23 -72 -31 -86 -13 -7 8 -32 13 -63 13 -30 0 -60 6 -72 15 -27 20 -42 19 -80 -10 -49 -37 -84 -31 -151 28 -23 21 -63 16 -63 -8 0 -19 -54 36 -55 55 0 10 -16 18 -51 24 -42 7 -57 5 -91 -13 -35 -17 -43 -18 -53 -6 -6 8 -37 19 -68 26 -31 7 -64 16 -73 20 -17 9 -39 79 -39 124 0 17 -8 29 -23 36 l-24 11 -6 450 -6 451 111 116 c135 142 233 264 680 853 l81 108 41 -34 c23 -18 55 -40 72 -49z"/>
    <path d="M3156 1346 c-16 -13 -25 -29 -22 -35 4 -6 2 -11 -3 -11 -6 0 -11 6 -11 14 0 25 -20 28 -53 8 -27 -16 -35 -17 -45 -5 -10 10 -18 11 -33 2 -27 -14 -35 -38 -18 -54 15 -15 59 -10 59 7 0 7 4 7 13 1 6 -6 43 -13 81 -16 40 -4 76 -13 86 -22 20 -18 42 -19 57 -4 8 8 14 5 22 -10 13 -23 43 -28 59 -8 5 6 7 36 5 65 -4 40 -11 55 -26 64 -17 9 -24 7 -39 -12 -18 -22 -18 -22 -18 -1 0 16 -6 21 -24 21 -14 0 -28 5 -31 10 -10 16 -28 11 -59 -14z"/>
  </g>
</svg>